# xmcd CD database file
#
# Track frame offsets:
#	150
#	13885
#	28375
#	45272
#	63647
#	78497
#	93987
#	107280
#	120787
#	133850
#	147965
#	158782
#
# Disc length: 2275 seconds
#
# Revision: 3
# Processed by: cddbd v1.5.1PL0 Copyright (c) Steve Scherf et al.
# Submitted via: CDex 1.51
#
DISCID=9708e10c,9d08e10c
DTITLE=Costa Cordalis - Costa Cordalis
DYEAR=1900
DGENRE=Deutscher Schlager
TTITLE0=Carolina komm
TTITLE1=Helena
TTITLE2=Über Delphi ging die Sonne auf
TTITLE3=Anna Karina
TTITLE4=Steig in das Boot Anna Lena
TTITLE5=Shangri-La
TTITLE6=Es stieg ein Engel vom Olymp
TTITLE7=Santa Lucia
TTITLE8=Haris Meta Kitrina
TTITLE9=Wo die Möwen Kreise ziehen
TTITLE10=Still wie der See
TTITLE11=Hellas Ade
EXTD=
EXTT0=
EXTT1=
EXTT2=
EXTT3=
EXTT4=
EXTT5=
EXTT6=
EXTT7=
EXTT8=
EXTT9=
EXTT10=
EXTT11=
PLAYORDER=
